<svg xmlns="http://www.w3.org/2000/svg" viewBox="0 0 120 120"><defs><clipPath id="c"><circle cx="60" cy="60" r="60"/></clipPath></defs><circle cx="60" cy="60" r="60" fill="#3b2a63"/><g clip-path="url(#c)" stroke-linejoin="round"><circle cx="18" cy="30" r="1.6" fill="#fff" opacity=".8"/><circle cx="100" cy="20" r="1.3" fill="#fff" opacity=".8"/><circle cx="12" cy="70" r="1.2" fill="#fff" opacity=".8"/><circle cx="108" cy="64" r="1.5" fill="#fff" opacity=".8"/><circle cx="26" cy="12" r="1" fill="#fff" opacity=".8"/><circle cx="94" cy="44" r="1" fill="#fff" opacity=".8"/><path d="M92 14 A9 9 0 1 0 104 26 A7 7 0 1 1 92 14 Z" fill="#ffe066"/><path d="M27 60 Q24 22 60 22 Q96 22 93 60 L97 98 Q80 104 60 101 Q40 104 23 98 Z" fill="#1b1b2f" stroke="#2b2340" stroke-width="2.4"/><path d="M14 124 Q16 96 60 93 Q104 96 106 124 Z" fill="#7048e8" stroke="#2b2340" stroke-width="2.4"/><rect x="52" y="80" width="16" height="16" rx="4" fill="#f1c29a" stroke="#2b2340" stroke-width="2.4"/><circle cx="32" cy="62" r="6" fill="#f1c29a" stroke="#2b2340" stroke-width="2.2"/><circle cx="88" cy="62" r="6" fill="#f1c29a" stroke="#2b2340" stroke-width="2.2"/><ellipse cx="60" cy="58" rx="28" ry="29" fill="#f1c29a" stroke="#2b2340" stroke-width="2.4"/><path d="M30 60 Q27 25 60 25 Q93 25 90 60 Q86 45 76 38 Q67 47 48 45 Q38 47 30 60 Z" fill="#1b1b2f" stroke="#2b2340" stroke-width="2.4"/><path d="M22 44 Q60 36 98 44 Q100 51 92 51 L28 51 Q20 51 22 44 Z" fill="#6741d9" stroke="#2b2340" stroke-width="2.4"/><path d="M36 45 Q46 12 70 2 Q62 20 84 45 Z" fill="#6741d9" stroke="#2b2340" stroke-width="2.4"/><path d="M37 41 Q60 35 83 41 L84 46 Q60 40 36 46 Z" fill="#ff922b"/><ellipse cx="48" cy="62" rx="4.6" ry="5.6" fill="#2b2340"/><circle cx="49.6" cy="59.8" r="1.7" fill="#fff"/><path d="M44.2 57.6 l-3 -2.4 M43.2 60.4 l-3.2 -0.8" stroke="#2b2340" stroke-width="1.7" stroke-linecap="round"/><ellipse cx="72" cy="62" rx="4.6" ry="5.6" fill="#2b2340"/><circle cx="73.6" cy="59.8" r="1.7" fill="#fff"/><path d="M75.8 57.6 l3 -2.4 M76.8 60.4 l3.2 -0.8" stroke="#2b2340" stroke-width="1.7" stroke-linecap="round"/><ellipse cx="41" cy="71" rx="5" ry="3.2" fill="#ff8fab" opacity=".5"/><ellipse cx="79" cy="71" rx="5" ry="3.2" fill="#ff8fab" opacity=".5"/><path d="M55 74 q5 4.5 10 0" fill="none" stroke="#2b2340" stroke-width="2.4" stroke-linecap="round"/></g></svg>
