<svg xmlns="http://www.w3.org/2000/svg" viewBox="0 0 120 120"><defs><clipPath id="c"><circle cx="60" cy="60" r="60"/></clipPath></defs><circle cx="60" cy="60" r="60" fill="#2c2446"/><g clip-path="url(#c)" stroke-linejoin="round"><circle cx="18" cy="30" r="1.6" fill="#fff" opacity=".8"/><circle cx="100" cy="20" r="1.3" fill="#fff" opacity=".8"/><circle cx="12" cy="70" r="1.2" fill="#fff" opacity=".8"/><circle cx="108" cy="64" r="1.5" fill="#fff" opacity=".8"/><circle cx="26" cy="12" r="1" fill="#fff" opacity=".8"/><circle cx="94" cy="44" r="1" fill="#fff" opacity=".8"/><path d="M92 14 A9 9 0 1 0 104 26 A7 7 0 1 1 92 14 Z" fill="#ffe066"/><path d="M14 124 Q16 96 60 93 Q104 96 106 124 Z" fill="#343a40" stroke="#2b2340" stroke-width="2.4"/><path d="M34 64 Q30 26 60 26 Q90 26 86 64 Q86 76 76 80 L76 88 L44 88 L44 80 Q34 76 34 64 Z" fill="#f8f9fa" stroke="#2b2340" stroke-width="2.4"/><ellipse cx="48" cy="60" rx="8" ry="9" fill="#2b2340"/><ellipse cx="72" cy="60" rx="8" ry="9" fill="#2b2340"/><circle cx="50" cy="57" r="2.4" fill="#fff"/><circle cx="74" cy="57" r="2.4" fill="#fff"/><path d="M60 68 l-3 6 h6 Z" fill="#2b2340"/><path d="M50 80 V88 M55 80 V88 M60 80 V88 M65 80 V88 M70 80 V88" stroke="#2b2340" stroke-width="1.6"/><ellipse cx="40" cy="70" rx="5" ry="3.2" fill="#ff8fab" opacity=".5"/><ellipse cx="80" cy="70" rx="5" ry="3.2" fill="#ff8fab" opacity=".5"/></g></svg>
