<svg xmlns="http://www.w3.org/2000/svg" viewBox="0 0 120 120"><defs><clipPath id="c"><circle cx="60" cy="60" r="60"/></clipPath></defs><circle cx="60" cy="60" r="60" fill="#2f2a5a"/><g clip-path="url(#c)" stroke-linejoin="round"><circle cx="18" cy="30" r="1.6" fill="#fff" opacity=".8"/><circle cx="100" cy="20" r="1.3" fill="#fff" opacity=".8"/><circle cx="12" cy="70" r="1.2" fill="#fff" opacity=".8"/><circle cx="108" cy="64" r="1.5" fill="#fff" opacity=".8"/><circle cx="26" cy="12" r="1" fill="#fff" opacity=".8"/><circle cx="94" cy="44" r="1" fill="#fff" opacity=".8"/><path d="M92 14 A9 9 0 1 0 104 26 A7 7 0 1 1 92 14 Z" fill="#ffe066"/><path d="M26 118 L26 58 Q26 22 60 22 Q94 22 94 58 L94 118 Q88 110 82 118 Q76 110 70 118 Q64 110 58 118 Q52 110 46 118 Q40 110 34 118 Q30 112 26 118 Z" fill="#f8f9fa" stroke="#2b2340" stroke-width="2.4"/><ellipse cx="48" cy="58" rx="4.6" ry="5.6" fill="#2b2340"/><circle cx="49.6" cy="55.8" r="1.7" fill="#fff"/><path d="M44.2 53.6 l-3 -2.4 M43.2 56.4 l-3.2 -0.8" stroke="#2b2340" stroke-width="1.7" stroke-linecap="round"/><ellipse cx="72" cy="58" rx="4.6" ry="5.6" fill="#2b2340"/><circle cx="73.6" cy="55.8" r="1.7" fill="#fff"/><path d="M75.8 53.6 l3 -2.4 M76.8 56.4 l3.2 -0.8" stroke="#2b2340" stroke-width="1.7" stroke-linecap="round"/><ellipse cx="41" cy="67" rx="5" ry="3.2" fill="#ff8fab" opacity=".5"/><ellipse cx="79" cy="67" rx="5" ry="3.2" fill="#ff8fab" opacity=".5"/><ellipse cx="60" cy="74" rx="4" ry="5" fill="#2b2340"/><g transform="translate(80 30) rotate(0)"><path d="M0 0 L-12 -7 Q-15 0 -12 7 Z M0 0 L12 -7 Q15 0 12 7 Z" fill="#ff4d8d" stroke="#2b2340" stroke-width="1.6"/><circle r="3.4" fill="#ff4d8d" stroke="#2b2340" stroke-width="1.6"/></g></g></svg>
