<svg xmlns="http://www.w3.org/2000/svg" viewBox="0 0 120 120"><defs><radialGradient id="g" cx="50%" cy="35%" r="75%"><stop offset="0" stop-color="#8b5cf6"/><stop offset="1" stop-color="#3b0764"/></radialGradient><clipPath id="c"><circle cx="60" cy="60" r="60"/></clipPath></defs><circle cx="60" cy="60" r="60" fill="url(#g)"/><g clip-path="url(#c)"><path d="M0 20 H120" stroke="#fff" opacity=".07"/><path d="M0 34 H120" stroke="#fff" opacity=".07"/><path d="M0 48 H120" stroke="#fff" opacity=".07"/><path d="M0 62 H120" stroke="#fff" opacity=".07"/><path d="M0 76 H120" stroke="#fff" opacity=".07"/><path d="M0 90 H120" stroke="#fff" opacity=".07"/><path d="M0 104 H120" stroke="#fff" opacity=".07"/><path d="M36 52 Q33 22 60 22 Q87 22 84 52 L90 104 Q60 112 30 104 Z" fill="#7c3aed" stroke="#1d1a2b" stroke-width="2" stroke-linejoin="round" stroke-linecap="round"/><path d="M10 124 Q12 94 40 89 L80 89 Q108 94 110 124 Z" fill="#111827" stroke="#1d1a2b" stroke-width="2.2" stroke-linejoin="round" stroke-linecap="round"/><path d="M40 89 Q60 104 80 89" fill="none" stroke="#a855f7" stroke-width="5"/><path d="M54 98 L54 112 M66 98 L66 112" stroke="#fff" stroke-width="1.4"/><g transform="translate(60 108)"><rect x="-10" y="-5" width="20" height="10" rx="5" fill="#a855f7" stroke="#1d1a2b" stroke-width="1.2" stroke-linejoin="round" stroke-linecap="round"/><path d="M-6 0 H-2 M-4 -2 V2" stroke="#1d1a2b" stroke-width="1.2"/><circle cx="4" cy="-1" r="1.2" fill="#1d1a2b"/><circle cx="6.5" cy="1.5" r="1.2" fill="#1d1a2b"/></g><path d="M51 70 L51 90 Q60 95 69 90 L69 70 Z" fill="#b97c55" stroke="#1d1a2b" stroke-width="2" stroke-linejoin="round" stroke-linecap="round"/><ellipse cx="40.5" cy="54" rx="3.6" ry="5.5" fill="#b97c55" stroke="#1d1a2b" stroke-width="1.8" stroke-linejoin="round" stroke-linecap="round"/><ellipse cx="79.5" cy="54" rx="3.6" ry="5.5" fill="#b97c55" stroke="#1d1a2b" stroke-width="1.8" stroke-linejoin="round" stroke-linecap="round"/><path d="M41 50 Q41 27 60 27 Q79 27 79 50 Q79 66 70 74 Q65 79 60 79 Q55 79 50 74 Q41 66 41 50 Z" fill="#b97c55" stroke="#1d1a2b" stroke-width="2.2" stroke-linejoin="round" stroke-linecap="round"/><path d="M44 62 Q48 74 60 78 Q52 72 49 62 Z" fill="#a36d4b" opacity=".5"/><path d="M45 51 Q51 46.5 58 51 Q51 54.5 45 51 Z" fill="#fff" stroke="#1d1a2b" stroke-width="1.2" stroke-linejoin="round" stroke-linecap="round"/><path d="M75 51 Q69 46.5 62 51 Q69 54.5 75 51 Z" fill="#fff" stroke="#1d1a2b" stroke-width="1.2" stroke-linejoin="round" stroke-linecap="round"/><circle cx="51.5" cy="50.8" r="2.4" fill="#3b2a1f"/><circle cx="68.5" cy="50.8" r="2.4" fill="#3b2a1f"/><circle cx="51.5" cy="50.8" r="1" fill="#1d1a2b"/><circle cx="68.5" cy="50.8" r="1" fill="#1d1a2b"/><circle cx="52.2" cy="50" r=".6" fill="#fff"/><circle cx="69.2" cy="50" r=".6" fill="#fff"/><path d="M45 50 Q51 45.5 58 50" fill="none" stroke="#1d1a2b" stroke-width="1.8"/><path d="M75 50 Q69 45.5 62 50" fill="none" stroke="#1d1a2b" stroke-width="1.8"/><path d="M45 50 L43.5 48.5 M75 50 L76.5 48.5" stroke="#1d1a2b" stroke-width="1.4"/><path d="M44 45 Q50 42 57 44.5" fill="none" stroke="#632ebe" stroke-width="1.8" stroke-linecap="round"/><path d="M76 45 Q70 42 63 44.5" fill="none" stroke="#632ebe" stroke-width="1.8" stroke-linecap="round"/><path d="M60 54 L58 62 Q60 63.5 62.5 62.2" fill="none" stroke="#785137" stroke-width="1.6" stroke-linecap="round"/><path d="M54 68 Q57 66 60 67.2 Q63 66 66 68 Q60 72.5 54 68 Z" fill="#c2566b" stroke="#1d1a2b" stroke-width="1.1" stroke-linejoin="round" stroke-linecap="round"/><path d="M39 54 Q37 25 60 25 Q83 25 81 54 Q78 38 66 33 Q60 42 46 40 Q41 45 39 54 Z" fill="#7c3aed" stroke="#1d1a2b" stroke-width="2" stroke-linejoin="round" stroke-linecap="round"/><path d="M38 50 Q38 20 60 20 Q82 20 82 50" fill="none" stroke="#18181b" stroke-width="4"/><rect x="33" y="46" width="9" height="14" rx="4" fill="#18181b" stroke="#1d1a2b" stroke-width="1.4" stroke-linejoin="round" stroke-linecap="round"/><rect x="78" y="46" width="9" height="14" rx="4" fill="#18181b" stroke="#1d1a2b" stroke-width="1.4" stroke-linejoin="round" stroke-linecap="round"/><path d="M38 58 Q40 70 52 70" fill="none" stroke="#18181b" stroke-width="2"/><circle cx="53" cy="70" r="2.2" fill="#22d3ee"/></g></svg>