<svg xmlns="http://www.w3.org/2000/svg" viewBox="0 0 120 120"><defs><radialGradient id="g" cx="50%" cy="35%" r="75%"><stop offset="0" stop-color="#fbbf24"/><stop offset="1" stop-color="#78350f"/></radialGradient><clipPath id="c"><circle cx="60" cy="60" r="60"/></clipPath></defs><circle cx="60" cy="60" r="60" fill="url(#g)"/><g clip-path="url(#c)"><path d="M60 50 L150 50 L148.5459323509309 66.11266160832417 Z" fill="#fff" opacity=".06"/><path d="M60 50 L137.94228634059948 95 L128.62669601352246 108.22694045085643 Z" fill="#fff" opacity=".06"/><path d="M60 50 L105 127.94228634059948 L90.31899190007451 134.73935762184664 Z" fill="#fff" opacity=".06"/><path d="M60 50 L60.00000000000001 140 L43.88733839167583 138.5459323509309 Z" fill="#fff" opacity=".06"/><path d="M60 50 L15.000000000000021 127.94228634059948 L1.773059549143575 118.62669601352246 Z" fill="#fff" opacity=".06"/><path d="M60 50 L-17.94228634059948 95 L-24.739357621846636 80.31899190007448 Z" fill="#fff" opacity=".06"/><path d="M60 50 L-30 50.000000000000014 L-28.545932350930926 33.887338391675826 Z" fill="#fff" opacity=".06"/><path d="M60 50 L-17.942286340599495 5.000000000000028 L-8.626696013522462 -8.226940450856425 Z" fill="#fff" opacity=".06"/><path d="M60 50 L14.999999999999957 -27.942286340599466 L29.68100809992544 -34.73935762184661 Z" fill="#fff" opacity=".06"/><path d="M60 50 L59.999999999999986 -40 L76.11266160832413 -38.545932350930926 Z" fill="#fff" opacity=".06"/><path d="M60 50 L105 -27.94228634059948 L118.22694045085642 -18.626696013522462 Z" fill="#fff" opacity=".06"/><path d="M60 50 L137.94228634059945 4.999999999999957 L144.7393576218466 19.681008099925435 Z" fill="#fff" opacity=".06"/><path d="M10 124 Q12 94 40 89 L80 89 Q108 94 110 124 Z" fill="#b91c1c" stroke="#1d1a2b" stroke-width="2.2" stroke-linejoin="round" stroke-linecap="round"/><path d="M30 98 Q60 90 90 98 L94 124 L26 124 Z" fill="#fbbf24" stroke="#1d1a2b" stroke-width="1.6" stroke-linejoin="round" stroke-linecap="round"/><circle cx="60" cy="106" r="6" fill="#bff6ff" stroke="#e0fbff" stroke-width="2"/><circle cx="60" cy="106" r="11" fill="#7ee7ff" opacity=".25"/><path d="M51 70 L51 90 Q60 95 69 90 L69 70 Z" fill="#d9a37e" stroke="#1d1a2b" stroke-width="2" stroke-linejoin="round" stroke-linecap="round"/><path d="M41 50 Q41 27 60 27 Q79 27 79 50 Q79 66 70 74 Q65 79 60 79 Q55 79 50 74 Q41 66 41 50 Z" fill="#b91c1c" stroke="#1d1a2b" stroke-width="2.2" stroke-linejoin="round" stroke-linecap="round"/><path d="M44 46 H76 L74 60 Q60 66 46 60 Z" fill="#fbbf24" stroke="#1d1a2b" stroke-width="1.6" stroke-linejoin="round" stroke-linecap="round"/><path d="M47 50 H57 M63 50 H73" stroke="#a5f3fc" stroke-width="2.6" stroke-linecap="round"/><path d="M54 68 H66" stroke="#1d1a2b" stroke-width="1.2"/></g></svg>