<svg xmlns="http://www.w3.org/2000/svg" viewBox="0 0 120 120"><defs><radialGradient id="g" cx="50%" cy="35%" r="75%"><stop offset="0" stop-color="#22d3ee"/><stop offset="1" stop-color="#164e63"/></radialGradient><clipPath id="c"><circle cx="60" cy="60" r="60"/></clipPath></defs><circle cx="60" cy="60" r="60" fill="url(#g)"/><g clip-path="url(#c)"><path d="M0 20 H120" stroke="#fff" opacity=".07"/><path d="M0 34 H120" stroke="#fff" opacity=".07"/><path d="M0 48 H120" stroke="#fff" opacity=".07"/><path d="M0 62 H120" stroke="#fff" opacity=".07"/><path d="M0 76 H120" stroke="#fff" opacity=".07"/><path d="M0 90 H120" stroke="#fff" opacity=".07"/><path d="M0 104 H120" stroke="#fff" opacity=".07"/><path d="M10 124 Q12 94 40 89 L80 89 Q108 94 110 124 Z" fill="#18181b" stroke="#1d1a2b" stroke-width="2.2" stroke-linejoin="round" stroke-linecap="round"/><g stroke="#0c0c0e" stroke-width="1" fill="none" opacity=".8"><path d="M60 92 L30 124 M60 92 L60 124 M60 92 L90 124 M60 92 L18 106 M60 92 L102 106"/><path d="M40 104 Q60 98 80 104 M30 116 Q60 108 90 116"/></g><g transform="translate(60 108)"><ellipse rx="3" ry="5" fill="#2dd4bf"/><path d="M-3 -2 L-10 -7 M-3 1 L-11 0 M-3 3 L-10 8 M3 -2 L10 -7 M3 1 L11 0 M3 3 L10 8" stroke="#2dd4bf" stroke-width="1.6"/></g><path d="M51 70 L51 90 Q60 95 69 90 L69 70 Z" fill="#18181b" stroke="#1d1a2b" stroke-width="2" stroke-linejoin="round" stroke-linecap="round"/><path d="M41 50 Q41 27 60 27 Q79 27 79 50 Q79 66 70 74 Q65 79 60 79 Q55 79 50 74 Q41 66 41 50 Z" fill="#18181b" stroke="#1d1a2b" stroke-width="2.2" stroke-linejoin="round" stroke-linecap="round"/><path d="M43 47 Q51 40 58 49 Q50 56 43 47 Z" fill="#5eead4" stroke="#1d1a2b" stroke-width="1.8" stroke-linejoin="round" stroke-linecap="round"/><path d="M77 47 Q69 40 62 49 Q70 56 77 47 Z" fill="#5eead4" stroke="#1d1a2b" stroke-width="1.8" stroke-linejoin="round" stroke-linecap="round"/><g stroke="#0c0c0e" stroke-width=".9" fill="none" opacity=".85"><path d="M60 27 V79 M41 50 H79 M46 33 L74 71 M74 33 L46 71"/><path d="M50 40 Q60 35 70 40 M46 60 Q60 54 74 60 M52 70 Q60 66 68 70"/></g></g></svg>