<svg xmlns="http://www.w3.org/2000/svg" viewBox="0 0 120 120"><defs><clipPath id="c"><circle cx="60" cy="60" r="60"/></clipPath></defs><circle cx="60" cy="60" r="60" fill="#ffe3e3"/><g clip-path="url(#c)" stroke-linejoin="round"><path d="M60 60 L150 60 L149 74 Z" fill="#fff" opacity=".35"/><path d="M60 60 L142 97 L135 109 Z" fill="#fff" opacity=".35"/><path d="M60 60 L120 127 L109 135 Z" fill="#fff" opacity=".35"/><path d="M60 60 L88 146 L74 149 Z" fill="#fff" opacity=".35"/><path d="M60 60 L51 150 L37 147 Z" fill="#fff" opacity=".35"/><path d="M60 60 L15 138 L3 130 Z" fill="#fff" opacity=".35"/><path d="M60 60 L-13 113 L-20 101 Z" fill="#fff" opacity=".35"/><path d="M60 60 L-28 79 L-30 65 Z" fill="#fff" opacity=".35"/><path d="M60 60 L-28 41 L-24 28 Z" fill="#fff" opacity=".35"/><path d="M60 60 L-13 7 L-4 -4 Z" fill="#fff" opacity=".35"/><path d="M60 60 L15 -18 L28 -24 Z" fill="#fff" opacity=".35"/><path d="M60 60 L51 -30 L65 -30 Z" fill="#fff" opacity=".35"/><path d="M60 60 L88 -26 L101 -20 Z" fill="#fff" opacity=".35"/><path d="M60 60 L120 -7 L130 3 Z" fill="#fff" opacity=".35"/><path d="M60 60 L142 23 L147 37 Z" fill="#fff" opacity=".35"/><path d="M10 124 L22 90 Q60 82 98 90 L110 124 Z" fill="#ffa94d" stroke="#2b2340" stroke-width="2.4"/><path d="M14 124 Q16 96 60 93 Q104 96 106 124 Z" fill="#c92a2a" stroke="#2b2340" stroke-width="2.4"/><rect x="52" y="80" width="16" height="16" rx="4" fill="#d9a06f" stroke="#2b2340" stroke-width="2.4"/><circle cx="32" cy="62" r="6" fill="#d9a06f" stroke="#2b2340" stroke-width="2.2"/><circle cx="88" cy="62" r="6" fill="#d9a06f" stroke="#2b2340" stroke-width="2.2"/><ellipse cx="60" cy="58" rx="28" ry="29" fill="#d9a06f" stroke="#2b2340" stroke-width="2.4"/><path d="M30 56 L27 36 L38 40 L39 25 L50 33 L58 20 L65 32 L75 23 L77 37 L89 33 L90 56 Q79 42 60 42 Q41 42 30 56 Z" fill="#1b1b2f" stroke="#2b2340" stroke-width="2.4"/><path d="M30 62 Q33 51 47 53 Q56 55 60 58 Q64 55 73 53 Q87 51 90 62 Q87 73 73 70 Q64 68 60 65 Q56 68 47 70 Q33 73 30 62 Z" fill="#c92a2a" stroke="#2b2340" stroke-width="2"/><circle cx="60" cy="108" r="11" fill="#fff" stroke="#2b2340" stroke-width="2"/><path d="M60 117 C53 117 52 110 55 106 C56 109 58 109 58 107 C58 103 61 101 62 98 C64 102 68 105 68 110 C68 114 65 117 60 117 Z" fill="#ff922b" stroke="#2b2340" stroke-width="1.4"/><ellipse cx="48" cy="62" rx="6.4" ry="6.8" fill="#fff"/><ellipse cx="48" cy="62.5" rx="4" ry="4.8" fill="#2b2340"/><circle cx="49.5" cy="60.6" r="1.5" fill="#fff"/><ellipse cx="72" cy="62" rx="6.4" ry="6.8" fill="#fff"/><ellipse cx="72" cy="62.5" rx="4" ry="4.8" fill="#2b2340"/><circle cx="73.5" cy="60.6" r="1.5" fill="#fff"/><ellipse cx="41" cy="71" rx="5" ry="3.2" fill="#ff8fab" opacity=".5"/><ellipse cx="79" cy="71" rx="5" ry="3.2" fill="#ff8fab" opacity=".5"/><path d="M55 74 q5 4.5 10 0" fill="none" stroke="#2b2340" stroke-width="2.4" stroke-linecap="round"/></g></svg>
