<svg xmlns="http://www.w3.org/2000/svg" viewBox="0 0 120 120"><defs><clipPath id="c"><circle cx="60" cy="60" r="60"/></clipPath></defs><circle cx="60" cy="60" r="60" fill="#c5f6fa"/><g clip-path="url(#c)" stroke-linejoin="round"><path d="M14 124 Q16 96 60 93 Q104 96 106 124 Z" fill="#fab005" stroke="#2b2340" stroke-width="2.4"/><rect x="52" y="80" width="16" height="16" rx="4" fill="#f9d9c0" stroke="#2b2340" stroke-width="2.4"/><circle cx="32" cy="62" r="6" fill="#f9d9c0" stroke="#2b2340" stroke-width="2.2"/><circle cx="88" cy="62" r="6" fill="#f9d9c0" stroke="#2b2340" stroke-width="2.2"/><ellipse cx="60" cy="58" rx="28" ry="29" fill="#f9d9c0" stroke="#2b2340" stroke-width="2.4"/><path d="M30 58 Q28 25 60 25 Q92 25 90 58 Q84 40 70 36 Q54 42 36 50 Q32 53 30 58 Z" fill="#8a3b12" stroke="#2b2340" stroke-width="2.4"/><path d="M32 46 L14 42 Q10 48 18 51 L34 51 Z" fill="#1098ad" stroke="#2b2340" stroke-width="2.4"/><path d="M30 48 Q30 22 60 22 Q90 22 90 48 Z" fill="#1098ad" stroke="#2b2340" stroke-width="2.4"/><circle cx="60" cy="23" r="3" fill="#fff" stroke="#2b2340" stroke-width="1.4"/><g transform="translate(29 99) rotate(-20)"><rect x="-13" y="-3" width="26" height="6" rx="3" fill="#f06595" stroke="#2b2340" stroke-width="2"/><circle cx="-7" cy="5" r="2.6" fill="#fff" stroke="#2b2340" stroke-width="1.4"/><circle cx="7" cy="5" r="2.6" fill="#fff" stroke="#2b2340" stroke-width="1.4"/></g><g transform="translate(96 22)"><circle r="13" fill="#ffd43b" stroke="#2b2340" stroke-width="2"/><path d="M-7 4 L-8 -5 L-3.5 -1 L0 -7 L3.5 -1 L8 -5 L7 4 Z" fill="#fff4bf" stroke="#2b2340" stroke-width="1.6"/></g><ellipse cx="48" cy="62" rx="4.6" ry="5.6" fill="#2b2340"/><circle cx="49.6" cy="59.8" r="1.7" fill="#fff"/><ellipse cx="72" cy="62" rx="4.6" ry="5.6" fill="#2b2340"/><circle cx="73.6" cy="59.8" r="1.7" fill="#fff"/><ellipse cx="41" cy="71" rx="5" ry="3.2" fill="#ff8fab" opacity=".5"/><ellipse cx="79" cy="71" rx="5" ry="3.2" fill="#ff8fab" opacity=".5"/><path d="M55 74 q5 4.5 10 0" fill="none" stroke="#2b2340" stroke-width="2.4" stroke-linecap="round"/></g></svg>
