<svg xmlns="http://www.w3.org/2000/svg" viewBox="0 0 120 120"><defs><radialGradient id="g" cx="50%" cy="35%" r="75%"><stop offset="0" stop-color="#fbbf24"/><stop offset="1" stop-color="#78350f"/></radialGradient><clipPath id="c"><circle cx="60" cy="60" r="60"/></clipPath></defs><circle cx="60" cy="60" r="60" fill="url(#g)"/><g clip-path="url(#c)"><circle cx="18" cy="26" r="1.3" fill="#fff" opacity=".8"/><circle cx="98" cy="18" r="1.3" fill="#fff" opacity=".8"/><circle cx="104" cy="52" r="1.3" fill="#fff" opacity=".8"/><circle cx="14" cy="64" r="1.3" fill="#fff" opacity=".8"/><circle cx="30" cy="12" r="1.3" fill="#fff" opacity=".8"/><path d="M10 124 Q12 100 36 96 Q60 104 84 96 Q108 100 110 124 Z" fill="#facc15" stroke="#1d1a2b" stroke-width="2.2" stroke-linejoin="round" stroke-linecap="round"/><path d="M36 96 Q60 104 84 96" fill="none" stroke="#fde68a" stroke-width="3"/><g transform="translate(60 112)"><circle r="5" fill="#e11d48" stroke="#1d1a2b" stroke-width="1.2" stroke-linejoin="round" stroke-linecap="round"/><path d="M-2 -1 Q0 -4 2 -1 Q0 2 -2 -1" fill="none" stroke="#1d1a2b" stroke-width=".8"/><path d="M-5 4 Q-9 6 -9 2" fill="#22c55e"/></g><path d="M48 94 Q60 104 72 94" fill="none" stroke="#fde68a" stroke-width="2"/><circle cx="60" cy="101" r="2.6" fill="#fde68a" stroke="#1d1a2b" stroke-width="1" stroke-linejoin="round" stroke-linecap="round"/><path d="M51 70 L51 90 Q60 95 69 90 L69 70 Z" fill="#f1c3a8" stroke="#1d1a2b" stroke-width="2" stroke-linejoin="round" stroke-linecap="round"/><ellipse cx="40.5" cy="54" rx="3.6" ry="5.5" fill="#f1c3a8" stroke="#1d1a2b" stroke-width="1.8" stroke-linejoin="round" stroke-linecap="round"/><ellipse cx="79.5" cy="54" rx="3.6" ry="5.5" fill="#f1c3a8" stroke="#1d1a2b" stroke-width="1.8" stroke-linejoin="round" stroke-linecap="round"/><path d="M41 50 Q41 27 60 27 Q79 27 79 50 Q79 66 70 74 Q65 79 60 79 Q55 79 50 74 Q41 66 41 50 Z" fill="#f1c3a8" stroke="#1d1a2b" stroke-width="2.2" stroke-linejoin="round" stroke-linecap="round"/><path d="M44 62 Q48 74 60 78 Q52 72 49 62 Z" fill="#d4ac94" opacity=".5"/><path d="M45 51 Q51 46.5 58 51 Q51 54.5 45 51 Z" fill="#fff" stroke="#1d1a2b" stroke-width="1.2" stroke-linejoin="round" stroke-linecap="round"/><path d="M75 51 Q69 46.5 62 51 Q69 54.5 75 51 Z" fill="#fff" stroke="#1d1a2b" stroke-width="1.2" stroke-linejoin="round" stroke-linecap="round"/><circle cx="51.5" cy="50.8" r="2.4" fill="#78350f"/><circle cx="68.5" cy="50.8" r="2.4" fill="#78350f"/><circle cx="51.5" cy="50.8" r="1" fill="#1d1a2b"/><circle cx="68.5" cy="50.8" r="1" fill="#1d1a2b"/><circle cx="52.2" cy="50" r=".6" fill="#fff"/><circle cx="69.2" cy="50" r=".6" fill="#fff"/><path d="M45 50 Q51 45.5 58 50" fill="none" stroke="#1d1a2b" stroke-width="1.8"/><path d="M75 50 Q69 45.5 62 50" fill="none" stroke="#1d1a2b" stroke-width="1.8"/><path d="M45 50 L43.5 48.5 M75 50 L76.5 48.5" stroke="#1d1a2b" stroke-width="1.4"/><path d="M44 45 Q50 42 57 44.5" fill="none" stroke="#602a0c" stroke-width="1.8" stroke-linecap="round"/><path d="M76 45 Q70 42 63 44.5" fill="none" stroke="#602a0c" stroke-width="1.8" stroke-linecap="round"/><path d="M60 54 L58 62 Q60 63.5 62.5 62.2" fill="none" stroke="#9d7f6d" stroke-width="1.6" stroke-linecap="round"/><path d="M54 68 Q57 66 60 67.2 Q63 66 66 68 Q60 72.5 54 68 Z" fill="#c2566b" stroke="#1d1a2b" stroke-width="1.1" stroke-linejoin="round" stroke-linecap="round"/><circle cx="40.5" cy="61" r="1.8" fill="#fde68a" stroke="#1d1a2b" stroke-width="0.8" stroke-linejoin="round" stroke-linecap="round"/><circle cx="79.5" cy="61" r="1.8" fill="#fde68a" stroke="#1d1a2b" stroke-width="0.8" stroke-linejoin="round" stroke-linecap="round"/><circle cx="60" cy="20" r="9" fill="#78350f" stroke="#1d1a2b" stroke-width="2" stroke-linejoin="round" stroke-linecap="round"/><path d="M40 50 Q38 25 60 25 Q82 25 80 50 Q76 35 60 33 Q44 35 40 50 Z" fill="#78350f" stroke="#1d1a2b" stroke-width="2" stroke-linejoin="round" stroke-linecap="round"/></g></svg>