<svg xmlns="http://www.w3.org/2000/svg" viewBox="0 0 120 120"><defs><radialGradient id="g" cx="50%" cy="35%" r="75%"><stop offset="0" stop-color="#22c55e"/><stop offset="1" stop-color="#14532d"/></radialGradient><clipPath id="c"><circle cx="60" cy="60" r="60"/></clipPath></defs><circle cx="60" cy="60" r="60" fill="url(#g)"/><g clip-path="url(#c)"><circle cx="18" cy="26" r="1.3" fill="#fff" opacity=".8"/><circle cx="98" cy="18" r="1.3" fill="#fff" opacity=".8"/><circle cx="104" cy="52" r="1.3" fill="#fff" opacity=".8"/><circle cx="14" cy="64" r="1.3" fill="#fff" opacity=".8"/><circle cx="30" cy="12" r="1.3" fill="#fff" opacity=".8"/><path d="M10 124 Q12 94 40 89 L80 89 Q108 94 110 124 Z" fill="#15803d" stroke="#1d1a2b" stroke-width="2.2" stroke-linejoin="round" stroke-linecap="round"/><path d="M44 89 L52 124 M76 89 L68 124" stroke="#111827" stroke-width="6"/><g transform="translate(60 108)"><circle r="7" fill="none" stroke="#bbf7d0" stroke-width="3"/><rect x="-6" y="-2" width="12" height="4" fill="#bbf7d0"/></g><path d="M51 70 L51 90 Q60 95 69 90 L69 70 Z" fill="#7c4a2d" stroke="#1d1a2b" stroke-width="2" stroke-linejoin="round" stroke-linecap="round"/><ellipse cx="40.5" cy="54" rx="3.6" ry="5.5" fill="#7c4a2d" stroke="#1d1a2b" stroke-width="1.8" stroke-linejoin="round" stroke-linecap="round"/><ellipse cx="79.5" cy="54" rx="3.6" ry="5.5" fill="#7c4a2d" stroke="#1d1a2b" stroke-width="1.8" stroke-linejoin="round" stroke-linecap="round"/><path d="M41 50 Q41 27 60 27 Q79 27 79 50 Q79 66 70 74 Q65 79 60 79 Q55 79 50 74 Q41 66 41 50 Z" fill="#7c4a2d" stroke="#1d1a2b" stroke-width="2.2" stroke-linejoin="round" stroke-linecap="round"/><path d="M44 62 Q48 74 60 78 Q52 72 49 62 Z" fill="#6d4128" opacity=".5"/><circle cx="51.5" cy="51" r="4" fill="#4ade80" opacity=".35"/><circle cx="68.5" cy="51" r="4" fill="#4ade80" opacity=".35"/><path d="M45 51 Q51 46.5 58 51 Q51 54.5 45 51 Z" fill="#fff" stroke="#1d1a2b" stroke-width="1.2" stroke-linejoin="round" stroke-linecap="round"/><path d="M75 51 Q69 46.5 62 51 Q69 54.5 75 51 Z" fill="#fff" stroke="#1d1a2b" stroke-width="1.2" stroke-linejoin="round" stroke-linecap="round"/><circle cx="51.5" cy="50.8" r="2.4" fill="#4ade80"/><circle cx="68.5" cy="50.8" r="2.4" fill="#4ade80"/><circle cx="51.5" cy="50.8" r="1" fill="#1d1a2b"/><circle cx="68.5" cy="50.8" r="1" fill="#1d1a2b"/><circle cx="52.2" cy="50" r=".6" fill="#fff"/><circle cx="69.2" cy="50" r=".6" fill="#fff"/><path d="M44 45 Q50 42 57 44.5" fill="none" stroke="#0e131f" stroke-width="2.4" stroke-linecap="round"/><path d="M76 45 Q70 42 63 44.5" fill="none" stroke="#0e131f" stroke-width="2.4" stroke-linecap="round"/><path d="M60 54 L58 62 Q60 63.5 62.5 62.2" fill="none" stroke="#51301d" stroke-width="1.6" stroke-linecap="round"/><path d="M54 68.5 Q60 71 66 68.5" fill="none" stroke="#1d1a2b" stroke-width="1.8" stroke-linecap="round"/><path d="M41 49 Q50 42 60 48 Q70 42 79 49 Q78 57 69 56.5 Q60 53 51 56.5 Q42 57 41 49 Z" fill="#16a34a" stroke="#1d1a2b" stroke-width="1.6" stroke-linejoin="round" stroke-linecap="round"/><path d="M45.5 51 Q51 47.5 57 51 Q51 54 45.5 51 Z M74.5 51 Q69 47.5 63 51 Q69 54 74.5 51 Z" fill="#fff"/><path d="M41 46 Q40 26 60 26 Q80 26 79 46 Q74 33 60 32 Q46 33 41 46 Z" fill="#111827" opacity=".9"/></g></svg>